<?xml version="1.0" encoding="UTF-8"?>
<svg id="Layer_1" data-name="Layer 1" xmlns="http://www.w3.org/2000/svg" viewBox="0 0 276.44 58.84">
  <defs>
    <style>
      .cls-1 {
        fill: #e83590;
      }

      .cls-2 {
        font-family: FredokaOne-Regular, 'Fredoka One';
        font-size: 42.31px;
      }

      .cls-2, .cls-3 {
        fill: #010101;
      }

      .cls-4, .cls-5, .cls-6, .cls-7 {
        fill: none;
      }

      .cls-8 {
        fill: #fff;
        stroke-width: 1.26px;
      }

      .cls-8, .cls-5, .cls-7 {
        stroke: #000;
      }

      .cls-8, .cls-6 {
        stroke-linejoin: round;
      }

      .cls-8, .cls-6, .cls-7 {
        stroke-linecap: round;
      }

      .cls-5 {
        stroke-width: 1.2px;
      }

      .cls-5, .cls-7 {
        stroke-miterlimit: 10;
      }

      .cls-9 {
        fill: #18c3f4;
      }

      .cls-10 {
        letter-spacing: -.12em;
      }

      .cls-6 {
        stroke: #010101;
        stroke-width: 1.04px;
      }

      .cls-11 {
        letter-spacing: -.06em;
      }

      .cls-12 {
        fill: #f5a31e;
      }

      .cls-13 {
        letter-spacing: 0em;
      }

      .cls-7 {
        stroke-width: .78px;
      }
    </style>
  </defs>
  <text class="cls-2" transform="translate(75.12 45.13)"><tspan class="cls-10" x="0" y="0">Y</tspan><tspan class="cls-13" x="23.95" y="0">o </tspan><tspan class="cls-11" x="60.03" y="0">F</tspan><tspan x="84.44" y="0">riend</tspan></text>
  <g>
    <path class="cls-8" d="M27.83,51.12c-1.07,0-2.11-.23-3.08-.67-1.28.44-2.61.67-3.98.67-6.73,0-12.2-5.47-12.2-12.2s5.28-12,11.84-12.19v-4.54c0-7.98,6.49-14.47,14.47-14.47s14.47,6.49,14.47,14.47v1.96c.43-.06.87-.1,1.31-.1,2.32,0,4.51.89,6.16,2.51l9.62,9.38c2.63,2.56,3.4,6.27,2.02,9.67-1.38,3.4-4.52,5.51-8.19,5.51H27.83Z"/>
    <path class="cls-4" d="M63.81,37.08l-9.19-8.95c-2.12-2.06-5.3-2.37-7.74-.95v-4.66c0-6.53-5.29-11.82-11.82-11.82h0c-6.53,0-11.82,5.29-11.82,11.82v6.47c-.54-.09-1.09-.14-1.65-.14-5.33,0-9.65,4.32-9.65,9.65s4.32,9.65,9.65,9.65c1.4,0,2.74-.3,3.94-.84.8.53,1.76.84,2.8.84h30.98c5.78,0,8.64-7.03,4.5-11.06Z"/>
    <path class="cls-12" d="M45.62,28.12l-9.19,8.95c-4.14,4.04-1.28,11.06,4.5,11.06h18.37c5.78,0,8.64-7.03,4.5-11.06l-9.19-8.95c-2.5-2.44-6.5-2.44-9,0Z"/>
    <path class="cls-1" d="M35.06,10.7h0c6.52,0,11.82,5.3,11.82,11.82v20.54c0,2.81-2.28,5.08-5.08,5.08h-13.47c-2.81,0-5.08-2.28-5.08-5.08v-20.54c0-6.52,5.3-11.82,11.82-11.82Z"/>
    <circle class="cls-9" cx="21.59" cy="38.49" r="9.65"/>
    <path class="cls-6" d="M23.52,36.34c.33.65.98,1.08,1.71,1.11.78.03,1.52-.4,1.88-1.11"/>
    <path class="cls-6" d="M53.95,36.33c.53.51,1.29.69,1.98.48.75-.23,1.3-.89,1.4-1.68"/>
    <circle class="cls-3" cx="22.84" cy="33.49" r="1.26"/>
    <circle class="cls-3" cx="26.56" cy="33.49" r="1.26"/>
    <path class="cls-5" d="M38.01,24.82h4.82c.28,0,.51.25.46.53-.24,1.37-1.44,2.43-2.87,2.43s-2.61-1.04-2.87-2.38c-.06-.29.16-.57.46-.57Z"/>
    <circle cx="36.26" cy="21" r="1.79"/>
    <circle cx="41.89" cy="21" r="1.79"/>
    <path class="cls-7" d="M51.08,33.17c.1-.53.57-.91,1.11-.91s1.01.38,1.11.91"/>
    <path class="cls-7" d="M55.18,33.17c.1-.53.57-.91,1.11-.91s1.01.38,1.11.91"/>
  </g>
</svg>