<?xml version="1.0" encoding="UTF-8"?>
<svg id="Layer_1" data-name="Layer 1" xmlns="http://www.w3.org/2000/svg" viewBox="0 0 190 190">
  <defs>
    <style>
      .cls-1 {
        fill: #fff;
        stroke-width: 3.54px;
      }

      .cls-1, .cls-2, .cls-3 {
        stroke: #000;
      }

      .cls-1, .cls-2, .cls-4 {
        stroke-linecap: round;
      }

      .cls-1, .cls-4 {
        stroke-linejoin: round;
      }

      .cls-5 {
        fill: #e83590;
      }

      .cls-6, .cls-2, .cls-3, .cls-4 {
        fill: none;
      }

      .cls-2 {
        stroke-width: 2.2px;
      }

      .cls-2, .cls-3 {
        stroke-miterlimit: 10;
      }

      .cls-3 {
        stroke-width: 3.38px;
      }

      .cls-7 {
        fill: #18c3f4;
      }

      .cls-8 {
        fill: #010101;
      }

      .cls-9 {
        fill: #f5a31e;
      }

      .cls-4 {
        stroke: #010101;
        stroke-width: 2.94px;
      }
    </style>
  </defs>
  <path class="cls-1" d="M65.52,147.19c-3.01,0-5.96-.64-8.67-1.88-3.6,1.25-7.37,1.88-11.22,1.88-18.95,0-34.37-15.42-34.37-34.38s14.87-33.82,33.35-34.36v-12.8c0-22.49,18.3-40.78,40.78-40.78s40.78,18.3,40.78,40.78v5.53c1.22-.18,2.46-.27,3.7-.27,6.53,0,12.7,2.51,17.37,7.06l27.12,26.43c7.41,7.22,9.59,17.66,5.69,27.24-3.9,9.58-12.75,15.54-23.09,15.54h-91.44Z"/>
  <path class="cls-6" d="M166.91,107.62l-25.89-25.23c-5.97-5.82-14.92-6.69-21.82-2.67v-13.12c0-18.39-14.91-33.3-33.3-33.3h0c-18.39,0-33.3,14.91-33.3,33.3v18.24c-1.52-.26-3.07-.41-4.66-.41-15.01,0-27.18,12.17-27.18,27.18s12.17,27.18,27.18,27.18c3.96,0,7.71-.85,11.1-2.37,2.26,1.5,4.97,2.37,7.89,2.37h87.3c16.3,0,24.35-19.8,12.68-31.17Z"/>
  <path class="cls-9" d="M115.67,82.38l-25.89,25.23c-11.67,11.37-3.62,31.17,12.68,31.17h51.78c16.3,0,24.35-19.8,12.68-31.17l-25.89-25.23c-7.05-6.88-18.3-6.88-25.36,0Z"/>
  <path class="cls-5" d="M85.91,33.28h0c18.38,0,33.3,14.92,33.3,33.3v57.88c0,7.91-6.42,14.33-14.33,14.33h-37.95c-7.91,0-14.33-6.42-14.33-14.33v-57.88c0-18.38,14.92-33.3,33.3-33.3Z"/>
  <circle class="cls-7" cx="47.94" cy="111.61" r="27.18"/>
  <path class="cls-4" d="M53.38,105.52c.93,1.84,2.77,3.05,4.81,3.13,2.2.09,4.28-1.13,5.29-3.13"/>
  <path class="cls-4" d="M139.15,105.5c1.5,1.42,3.63,1.94,5.58,1.34,2.11-.65,3.65-2.5,3.94-4.72"/>
  <circle class="cls-8" cx="51.48" cy="97.51" r="3.54"/>
  <circle class="cls-8" cx="61.97" cy="97.51" r="3.54"/>
  <path class="cls-3" d="M94.23,73.07h13.58c.79,0,1.44.7,1.31,1.48-.67,3.86-4.06,6.84-8.1,6.84s-7.36-2.92-8.08-6.72c-.16-.83.45-1.6,1.29-1.6Z"/>
  <circle cx="89.3" cy="62.32" r="5.05"/>
  <circle cx="105.16" cy="62.32" r="5.05"/>
  <path class="cls-2" d="M131.05,96.6c.3-1.49,1.61-2.57,3.13-2.57s2.83,1.08,3.13,2.57"/>
  <path class="cls-2" d="M142.61,96.6c.3-1.49,1.61-2.57,3.13-2.57s2.83,1.08,3.13,2.57"/>
</svg>