<?xml version="1.0" encoding="UTF-8"?>
<svg id="Layer_1" data-name="Layer 1" xmlns="http://www.w3.org/2000/svg" viewBox="0 0 190 190">
  <defs>
    <style>
      .cls-1 {
        stroke-width: 1.91px;
      }

      .cls-1, .cls-2 {
        stroke-miterlimit: 10;
      }

      .cls-1, .cls-2, .cls-3, .cls-4 {
        fill: none;
      }

      .cls-1, .cls-2, .cls-5 {
        stroke: #000;
      }

      .cls-1, .cls-3, .cls-5 {
        stroke-linecap: round;
      }

      .cls-6 {
        fill: #e83590;
      }

      .cls-7 {
        letter-spacing: -.12em;
      }

      .cls-2 {
        stroke-width: 2.95px;
      }

      .cls-3 {
        stroke: #010101;
        stroke-width: 2.56px;
      }

      .cls-3, .cls-5 {
        stroke-linejoin: round;
      }

      .cls-8 {
        font-family: FredokaOne-Regular, 'Fredoka One';
        font-size: 37.77px;
      }

      .cls-8, .cls-9 {
        fill: #010101;
      }

      .cls-10 {
        fill: #18c3f4;
      }

      .cls-5 {
        fill: #fff;
        stroke-width: 3.09px;
      }

      .cls-11 {
        letter-spacing: -.06em;
      }

      .cls-12 {
        fill: #f5a31e;
      }

      .cls-13 {
        letter-spacing: 0em;
      }
    </style>
  </defs>
  <text class="cls-8" transform="translate(9.81 161.35)"><tspan class="cls-7" x="0" y="0">Y</tspan><tspan class="cls-13" x="21.38" y="0">o </tspan><tspan class="cls-11" x="53.6" y="0">F</tspan><tspan x="75.39" y="0">riend</tspan></text>
  <g>
    <path class="cls-5" d="M69.51,120.38c-2.63,0-5.19-.56-7.56-1.64-3.14,1.09-6.42,1.64-9.78,1.64-16.53,0-29.97-13.45-29.97-29.97s12.96-29.49,29.08-29.96v-11.16c0-19.61,15.95-35.56,35.56-35.56s35.56,15.95,35.56,35.56v4.82c1.06-.16,2.14-.24,3.22-.24,5.69,0,11.07,2.19,15.15,6.16l23.64,23.04c6.46,6.3,8.36,15.4,4.96,23.75-3.4,8.36-11.11,13.55-20.13,13.55h-79.73Z"/>
    <path class="cls-4" d="M157.91,85.87l-22.57-22c-5.2-5.07-13.01-5.84-19.02-2.33v-11.44c0-16.04-13-29.04-29.04-29.04h0c-16.04,0-29.04,13-29.04,29.04v15.91c-1.32-.23-2.68-.35-4.06-.35-13.09,0-23.7,10.61-23.7,23.7s10.61,23.7,23.7,23.7c3.45,0,6.72-.74,9.68-2.07,1.97,1.3,4.33,2.07,6.88,2.07h76.12c14.21,0,21.23-17.26,11.06-27.18Z"/>
    <path class="cls-12" d="M113.23,63.87l-22.57,22c-10.17,9.92-3.15,27.18,11.06,27.18h45.14c14.21,0,21.23-17.26,11.06-27.18l-22.57-22c-6.15-6-15.96-6-22.11,0Z"/>
    <path class="cls-6" d="M87.28,21.06h0c16.03,0,29.04,13.01,29.04,29.04v50.46c0,6.89-5.6,12.49-12.49,12.49h-33.09c-6.89,0-12.49-5.6-12.49-12.49v-50.46c0-16.03,13.01-29.04,29.04-29.04Z"/>
    <circle class="cls-10" cx="54.18" cy="89.35" r="23.7"/>
    <path class="cls-3" d="M58.92,84.04c.81,1.61,2.42,2.66,4.19,2.73,1.92.08,3.73-.99,4.62-2.73"/>
    <path class="cls-3" d="M133.7,84.02c1.3,1.24,3.17,1.69,4.87,1.17,1.84-.56,3.18-2.18,3.44-4.12"/>
    <circle class="cls-9" cx="57.26" cy="77.06" r="3.09"/>
    <circle class="cls-9" cx="66.41" cy="77.06" r="3.09"/>
    <path class="cls-2" d="M94.54,55.74h11.84c.69,0,1.26.61,1.14,1.29-.58,3.36-3.54,5.96-7.06,5.96s-6.42-2.55-7.04-5.86c-.14-.72.39-1.4,1.13-1.4Z"/>
    <circle cx="90.24" cy="46.37" r="4.4"/>
    <circle cx="104.07" cy="46.37" r="4.4"/>
    <path class="cls-1" d="M126.64,76.26c.26-1.3,1.41-2.24,2.73-2.24s2.47.94,2.73,2.24"/>
    <path class="cls-1" d="M136.72,76.26c.26-1.3,1.41-2.24,2.73-2.24s2.47.94,2.73,2.24"/>
  </g>
</svg>